<svg xmlns="http://www.w3.org/2000/svg" xmlns:xlink="http://www.w3.org/1999/xlink" width="100" zoomAndPan="magnify" viewBox="0 0 75 60" height="80" preserveAspectRatio="xMidYMid meet" version="1.0"><defs><g/><clipPath id="1f3865870c"><path d="M 21.039062 2.742188 L 53.253906 2.742188 L 53.253906 41.007812 L 21.039062 41.007812 Z M 21.039062 2.742188 " clip-rule="nonzero"/></clipPath></defs><g clip-path="url(#1f3865870c)"><path fill="#d9d9d9" d="M 48.871094 18.4375 C 48.871094 25.425781 42.417969 31.097656 34.457031 31.097656 C 30.761719 31.097656 27.242188 29.949219 24.324219 27.746094 C 23.511719 27.125 22.753906 26.441406 22.121094 25.679688 C 22.917969 28.3125 24.128906 30.859375 25.757812 33.117188 C 28.320312 36.683594 31.878906 39.546875 36.304688 41.007812 L 36.304688 35.144531 C 36.304688 34.695312 36.679688 34.324219 37.140625 34.324219 C 41.589844 34.324219 45.625 32.550781 48.542969 29.6875 C 51.449219 26.824219 53.25 22.890625 53.25 18.53125 C 53.25 14.167969 51.441406 10.21875 48.535156 7.355469 C 45.617188 4.515625 41.589844 2.742188 37.140625 2.742188 C 32.691406 2.742188 28.679688 4.515625 25.757812 7.355469 C 22.839844 10.21875 21.027344 14.175781 21.027344 18.539062 C 21.027344 18.851562 21.050781 19.179688 21.050781 19.507812 C 21.371094 22.234375 22.996094 24.667969 25.363281 26.441406 C 25.640625 26.65625 25.9375 26.847656 26.234375 27.046875 L 26.234375 16.976562 C 26.234375 14.265625 27.507812 11.816406 29.53125 10.042969 C 31.535156 8.289062 34.300781 7.195312 37.359375 7.195312 C 39.621094 7.195312 41.769531 7.800781 43.574219 8.871094 C 45.382812 9.957031 46.828125 11.503906 47.6875 13.386719 C 48.0625 14.167969 48.363281 15 48.558594 15.820312 C 48.777344 16.683594 48.871094 17.558594 48.871094 18.4375 Z M 48.871094 18.4375 " fill-opacity="1" fill-rule="nonzero"/></g><path fill="#d9d9d9" d="M 34.457031 29.445312 C 41.488281 29.445312 47.1875 24.515625 47.1875 18.4375 C 47.1875 17.679688 47.085938 16.9375 46.929688 16.21875 C 46.75 15.476562 46.492188 14.757812 46.15625 14.074219 L 46.132812 14.050781 C 45.4375 12.492188 44.203125 11.191406 42.699219 10.296875 C 41.167969 9.375 39.300781 8.855469 37.359375 8.855469 C 34.734375 8.855469 32.355469 9.789062 30.644531 11.273438 C 28.976562 12.730469 27.921875 14.757812 27.921875 16.976562 L 27.921875 27.980469 C 29.90625 28.890625 32.167969 29.445312 34.457031 29.445312 Z M 34.222656 20.972656 C 33.925781 21.085938 33.605469 21.164062 33.269531 21.164062 C 31.855469 21.164062 30.722656 20.03125 30.722656 18.667969 C 30.722656 17.28125 31.855469 16.171875 33.269531 16.171875 C 34.65625 16.171875 35.8125 17.28125 35.8125 18.667969 C 35.8125 19.195312 35.632812 19.679688 35.351562 20.089844 C 35.3125 19.664062 34.9375 19.332031 34.503906 19.332031 C 34.027344 19.332031 33.628906 19.699219 33.628906 20.167969 C 33.621094 20.542969 33.878906 20.871094 34.222656 20.972656 Z M 41.027344 21.164062 C 39.613281 21.164062 38.484375 20.03125 38.484375 18.667969 C 38.484375 17.28125 39.613281 16.171875 41.027344 16.171875 C 42.441406 16.171875 43.574219 17.28125 43.574219 18.667969 C 43.574219 19.195312 43.417969 19.679688 43.113281 20.089844 C 43.074219 19.664062 42.699219 19.332031 42.261719 19.332031 C 41.785156 19.332031 41.410156 19.699219 41.410156 20.167969 C 41.410156 20.535156 41.652344 20.871094 42.003906 20.964844 C 41.707031 21.085938 41.371094 21.164062 41.027344 21.164062 Z M 41.027344 21.164062 " fill-opacity="1" fill-rule="nonzero"/><g fill="#d9d9d9" fill-opacity="1"><g transform="translate(5.250214, 55.108433)"><g><path d="M 3.34375 0.09375 C 2.78125 0.09375 2.28125 -0.015625 1.84375 -0.234375 C 1.414062 -0.460938 1.085938 -0.773438 0.859375 -1.171875 C 0.628906 -1.578125 0.515625 -2.039062 0.515625 -2.5625 L 0.515625 -5.078125 C 0.515625 -5.597656 0.628906 -6.054688 0.859375 -6.453125 C 1.085938 -6.859375 1.414062 -7.164062 1.84375 -7.375 C 2.28125 -7.59375 2.78125 -7.703125 3.34375 -7.703125 C 3.90625 -7.703125 4.394531 -7.597656 4.8125 -7.390625 C 5.238281 -7.191406 5.570312 -6.898438 5.8125 -6.515625 C 6.050781 -6.140625 6.171875 -5.695312 6.171875 -5.1875 C 6.171875 -5.125 6.109375 -5.085938 5.984375 -5.078125 L 4.828125 -5 L 4.78125 -5 C 4.675781 -5 4.625 -5.015625 4.625 -5.046875 L 4.625 -5.125 C 4.625 -5.507812 4.503906 -5.816406 4.265625 -6.046875 C 4.035156 -6.273438 3.726562 -6.390625 3.34375 -6.390625 C 2.945312 -6.390625 2.628906 -6.273438 2.390625 -6.046875 C 2.160156 -5.816406 2.046875 -5.507812 2.046875 -5.125 L 2.046875 -2.5 C 2.046875 -2.113281 2.160156 -1.804688 2.390625 -1.578125 C 2.628906 -1.347656 2.945312 -1.234375 3.34375 -1.234375 C 3.726562 -1.234375 4.035156 -1.347656 4.265625 -1.578125 C 4.503906 -1.804688 4.625 -2.113281 4.625 -2.5 C 4.625 -2.53125 4.640625 -2.554688 4.671875 -2.578125 C 4.710938 -2.609375 4.757812 -2.617188 4.8125 -2.609375 L 5.984375 -2.5625 C 6.109375 -2.539062 6.171875 -2.519531 6.171875 -2.5 L 6.171875 -2.453125 C 6.171875 -1.953125 6.050781 -1.507812 5.8125 -1.125 C 5.570312 -0.738281 5.238281 -0.4375 4.8125 -0.21875 C 4.394531 -0.0078125 3.90625 0.09375 3.34375 0.09375 Z M 3.34375 0.09375 "/></g></g></g><g fill="#d9d9d9" fill-opacity="1"><g transform="translate(11.869351, 55.108433)"><g><path d="M 4.71875 -7.4375 C 4.71875 -7.5625 4.78125 -7.625 4.90625 -7.625 L 6.0625 -7.625 C 6.1875 -7.625 6.25 -7.5625 6.25 -7.4375 L 6.25 -0.1875 C 6.25 -0.0625 6.1875 0 6.0625 0 L 4.90625 0 C 4.78125 0 4.71875 -0.0625 4.71875 -0.1875 L 4.71875 -3.125 C 4.71875 -3.164062 4.695312 -3.1875 4.65625 -3.1875 L 2.265625 -3.1875 C 2.222656 -3.1875 2.203125 -3.164062 2.203125 -3.125 L 2.203125 -0.1875 C 2.203125 -0.0625 2.140625 0 2.015625 0 L 0.84375 0 C 0.726562 0 0.671875 -0.0625 0.671875 -0.1875 L 0.671875 -7.4375 C 0.671875 -7.5625 0.726562 -7.625 0.84375 -7.625 L 2.015625 -7.625 C 2.140625 -7.625 2.203125 -7.5625 2.203125 -7.4375 L 2.203125 -4.578125 C 2.203125 -4.535156 2.222656 -4.515625 2.265625 -4.515625 L 4.65625 -4.515625 C 4.695312 -4.515625 4.71875 -4.535156 4.71875 -4.578125 Z M 4.71875 -7.4375 "/></g></g></g><g fill="#d9d9d9" fill-opacity="1"><g transform="translate(18.706211, 55.108433)"><g><path d="M 5.5625 0 C 5.457031 0 5.390625 -0.0507812 5.359375 -0.15625 L 5.046875 -1.171875 C 5.046875 -1.203125 5.023438 -1.21875 4.984375 -1.21875 L 2.3125 -1.21875 C 2.28125 -1.21875 2.257812 -1.203125 2.25 -1.171875 L 1.953125 -0.15625 C 1.910156 -0.0507812 1.84375 0 1.75 0 L 0.484375 0 C 0.410156 0 0.359375 -0.0195312 0.328125 -0.0625 C 0.304688 -0.101562 0.304688 -0.148438 0.328125 -0.203125 L 2.640625 -7.46875 C 2.679688 -7.570312 2.753906 -7.625 2.859375 -7.625 L 4.453125 -7.625 C 4.554688 -7.625 4.625 -7.570312 4.65625 -7.46875 L 6.984375 -0.203125 C 6.984375 -0.191406 6.984375 -0.171875 6.984375 -0.140625 C 6.984375 -0.0976562 6.96875 -0.0625 6.9375 -0.03125 C 6.914062 -0.0078125 6.878906 0 6.828125 0 Z M 2.640625 -2.484375 C 2.628906 -2.429688 2.644531 -2.40625 2.6875 -2.40625 L 4.625 -2.40625 C 4.664062 -2.40625 4.679688 -2.429688 4.671875 -2.484375 L 3.6875 -5.8125 C 3.6875 -5.832031 3.675781 -5.84375 3.65625 -5.84375 C 3.632812 -5.84375 3.617188 -5.832031 3.609375 -5.8125 Z M 2.640625 -2.484375 "/></g></g></g><g fill="#d9d9d9" fill-opacity="1"><g transform="translate(26.011203, 55.108433)"><g><path d="M 5.875 -7.625 C 6 -7.625 6.0625 -7.5625 6.0625 -7.4375 L 6.0625 -6.484375 C 6.0625 -6.359375 6 -6.296875 5.875 -6.296875 L 3.984375 -6.296875 C 3.941406 -6.296875 3.921875 -6.273438 3.921875 -6.234375 L 3.921875 -0.1875 C 3.921875 -0.0625 3.859375 0 3.734375 0 L 2.5625 0 C 2.445312 0 2.390625 -0.0625 2.390625 -0.1875 L 2.390625 -6.234375 C 2.390625 -6.273438 2.363281 -6.296875 2.3125 -6.296875 L 0.484375 -6.296875 C 0.367188 -6.296875 0.3125 -6.359375 0.3125 -6.484375 L 0.3125 -7.4375 C 0.3125 -7.5625 0.367188 -7.625 0.484375 -7.625 Z M 5.875 -7.625 "/></g></g></g><g fill="#d9d9d9" fill-opacity="1"><g transform="translate(32.379943, 55.108433)"><g/></g></g><g fill="#d9d9d9" fill-opacity="1"><g transform="translate(34.557284, 55.108433)"><g><path d="M 5.5625 0 C 5.457031 0 5.390625 -0.0507812 5.359375 -0.15625 L 5.046875 -1.171875 C 5.046875 -1.203125 5.023438 -1.21875 4.984375 -1.21875 L 2.3125 -1.21875 C 2.28125 -1.21875 2.257812 -1.203125 2.25 -1.171875 L 1.953125 -0.15625 C 1.910156 -0.0507812 1.84375 0 1.75 0 L 0.484375 0 C 0.410156 0 0.359375 -0.0195312 0.328125 -0.0625 C 0.304688 -0.101562 0.304688 -0.148438 0.328125 -0.203125 L 2.640625 -7.46875 C 2.679688 -7.570312 2.753906 -7.625 2.859375 -7.625 L 4.453125 -7.625 C 4.554688 -7.625 4.625 -7.570312 4.65625 -7.46875 L 6.984375 -0.203125 C 6.984375 -0.191406 6.984375 -0.171875 6.984375 -0.140625 C 6.984375 -0.0976562 6.96875 -0.0625 6.9375 -0.03125 C 6.914062 -0.0078125 6.878906 0 6.828125 0 Z M 2.640625 -2.484375 C 2.628906 -2.429688 2.644531 -2.40625 2.6875 -2.40625 L 4.625 -2.40625 C 4.664062 -2.40625 4.679688 -2.429688 4.671875 -2.484375 L 3.6875 -5.8125 C 3.6875 -5.832031 3.675781 -5.84375 3.65625 -5.84375 C 3.632812 -5.84375 3.617188 -5.832031 3.609375 -5.8125 Z M 2.640625 -2.484375 "/></g></g></g><g fill="#d9d9d9" fill-opacity="1"><g transform="translate(41.862277, 55.108433)"><g><path d="M 0.84375 0 C 0.726562 0 0.671875 -0.0625 0.671875 -0.1875 L 0.671875 -7.4375 C 0.671875 -7.5625 0.726562 -7.625 0.84375 -7.625 L 2.015625 -7.625 C 2.140625 -7.625 2.203125 -7.5625 2.203125 -7.4375 L 2.203125 -1.390625 C 2.203125 -1.335938 2.222656 -1.3125 2.265625 -1.3125 L 5.765625 -1.3125 C 5.890625 -1.3125 5.953125 -1.25 5.953125 -1.125 L 5.953125 -0.1875 C 5.953125 -0.0625 5.890625 0 5.765625 0 Z M 0.84375 0 "/></g></g></g><g fill="#d9d9d9" fill-opacity="1"><g transform="translate(48.089487, 55.108433)"><g><path d="M 3.375 0.125 C 2.8125 0.125 2.3125 0.0078125 1.875 -0.21875 C 1.445312 -0.457031 1.113281 -0.785156 0.875 -1.203125 C 0.632812 -1.617188 0.515625 -2.097656 0.515625 -2.640625 L 0.515625 -4.984375 C 0.515625 -5.515625 0.632812 -5.988281 0.875 -6.40625 C 1.113281 -6.820312 1.445312 -7.140625 1.875 -7.359375 C 2.3125 -7.585938 2.8125 -7.703125 3.375 -7.703125 C 3.945312 -7.703125 4.445312 -7.585938 4.875 -7.359375 C 5.3125 -7.140625 5.648438 -6.820312 5.890625 -6.40625 C 6.128906 -5.988281 6.25 -5.515625 6.25 -4.984375 L 6.25 -2.640625 C 6.25 -2.097656 6.128906 -1.613281 5.890625 -1.1875 C 5.648438 -0.769531 5.3125 -0.445312 4.875 -0.21875 C 4.445312 0.0078125 3.945312 0.125 3.375 0.125 Z M 3.375 -1.203125 C 3.769531 -1.203125 4.09375 -1.328125 4.34375 -1.578125 C 4.59375 -1.828125 4.71875 -2.164062 4.71875 -2.59375 L 4.71875 -4.984375 C 4.71875 -5.410156 4.59375 -5.75 4.34375 -6 C 4.101562 -6.257812 3.78125 -6.390625 3.375 -6.390625 C 2.976562 -6.390625 2.65625 -6.257812 2.40625 -6 C 2.164062 -5.75 2.046875 -5.410156 2.046875 -4.984375 L 2.046875 -2.59375 C 2.046875 -2.164062 2.164062 -1.828125 2.40625 -1.578125 C 2.65625 -1.328125 2.976562 -1.203125 3.375 -1.203125 Z M 3.375 -1.203125 "/></g></g></g><g fill="#d9d9d9" fill-opacity="1"><g transform="translate(54.850142, 55.108433)"><g><path d="M 0.84375 0 C 0.726562 0 0.671875 -0.0625 0.671875 -0.1875 L 0.671875 -7.4375 C 0.671875 -7.5625 0.726562 -7.625 0.84375 -7.625 L 1.96875 -7.625 C 2.0625 -7.625 2.132812 -7.582031 2.1875 -7.5 L 4.90625 -2.96875 C 4.925781 -2.9375 4.941406 -2.925781 4.953125 -2.9375 C 4.972656 -2.945312 4.984375 -2.96875 4.984375 -3 L 4.984375 -7.4375 C 4.984375 -7.5625 5.046875 -7.625 5.171875 -7.625 L 6.3125 -7.625 C 6.4375 -7.625 6.5 -7.5625 6.5 -7.4375 L 6.5 -0.1875 C 6.5 -0.0625 6.4375 0 6.3125 0 L 5.203125 0 C 5.117188 0 5.046875 -0.0390625 4.984375 -0.125 L 2.25 -4.703125 C 2.238281 -4.734375 2.222656 -4.742188 2.203125 -4.734375 C 2.179688 -4.734375 2.171875 -4.71875 2.171875 -4.6875 L 2.1875 -0.1875 C 2.1875 -0.0625 2.125 0 2 0 Z M 0.84375 0 "/></g></g></g><g fill="#d9d9d9" fill-opacity="1"><g transform="translate(62.013605, 55.108433)"><g><path d="M 3.34375 0.09375 C 2.78125 0.09375 2.285156 -0.0195312 1.859375 -0.25 C 1.429688 -0.476562 1.097656 -0.789062 0.859375 -1.1875 C 0.628906 -1.59375 0.515625 -2.0625 0.515625 -2.59375 L 0.515625 -5.03125 C 0.515625 -5.5625 0.628906 -6.03125 0.859375 -6.4375 C 1.097656 -6.84375 1.429688 -7.15625 1.859375 -7.375 C 2.285156 -7.59375 2.78125 -7.703125 3.34375 -7.703125 C 3.894531 -7.703125 4.382812 -7.59375 4.8125 -7.375 C 5.238281 -7.164062 5.566406 -6.875 5.796875 -6.5 C 6.035156 -6.125 6.15625 -5.707031 6.15625 -5.25 L 6.15625 -5.234375 C 6.15625 -5.109375 6.09375 -5.046875 5.96875 -5.046875 L 4.796875 -5.046875 C 4.742188 -5.046875 4.703125 -5.050781 4.671875 -5.0625 C 4.640625 -5.082031 4.625 -5.101562 4.625 -5.125 L 4.625 -5.203125 C 4.625 -5.535156 4.503906 -5.816406 4.265625 -6.046875 C 4.035156 -6.273438 3.726562 -6.390625 3.34375 -6.390625 C 2.945312 -6.390625 2.628906 -6.265625 2.390625 -6.015625 C 2.160156 -5.773438 2.046875 -5.460938 2.046875 -5.078125 L 2.046875 -2.546875 C 2.046875 -2.148438 2.171875 -1.832031 2.421875 -1.59375 C 2.679688 -1.351562 3.003906 -1.234375 3.390625 -1.234375 C 3.773438 -1.234375 4.078125 -1.332031 4.296875 -1.53125 C 4.523438 -1.726562 4.640625 -2.003906 4.640625 -2.359375 L 4.640625 -2.84375 C 4.640625 -2.882812 4.617188 -2.90625 4.578125 -2.90625 L 3.421875 -2.90625 C 3.296875 -2.90625 3.234375 -2.96875 3.234375 -3.09375 L 3.234375 -3.984375 C 3.234375 -4.109375 3.296875 -4.171875 3.421875 -4.171875 L 5.96875 -4.171875 C 6.09375 -4.171875 6.15625 -4.109375 6.15625 -3.984375 L 6.15625 -2.609375 C 6.15625 -2.054688 6.035156 -1.578125 5.796875 -1.171875 C 5.566406 -0.765625 5.238281 -0.453125 4.8125 -0.234375 C 4.394531 -0.015625 3.90625 0.09375 3.34375 0.09375 Z M 3.34375 0.09375 "/></g></g></g></svg>